# File created by Blade
# Date/Time:  Mon Sep 22 17:46:01 2014
# Frame Rate: 120.000 fps
#------------------------------------------------------
:FULLY-SPECIFIED
:DEGREES
3966
root 4.160414 38.138701 4.144639 19.413878 -43.633397 -29.939778
RightUpLeg 18.504136 -9.983056 -5.212080
RightLeg 7.888096 -0.000000 -0.000000
RightFoot -7.165912 -36.000274 16.606249
RightToeBase -2.116400 -0.000000 0.000000
LeftUpLeg 10.195880 16.012512 14.119079
LeftLeg -5.749090 -0.000000 0.000000
LeftFoot -15.315248 32.765424 -13.593068
LeftToeBase 3.953691 -0.000000 -0.000000
Spine 8.568500 -9.733796 -16.014455
RightShoulder -5.176944 -34.671649 -2.861969
RightArm 13.698513 -14.902244 73.315333
RightForeArm 10.034292 -0.000000 66.212800
RightHand -1.961621 0.000000 -18.440090
RightHandThumb1 -24.326973 -0.000000 -32.862282
LeftShoulder -17.599644 31.635184 11.709208
LeftArm 49.848815 -50.756865 -69.995917
LeftForeArm 27.662349 -0.000000 108.787421
LeftHand -34.787217 -0.000000 21.681705
LeftHandThumb1 -26.253704 0.000000 33.147579
Head 25.241305 35.690412 23.973986
3967
root 4.149334 38.135838 4.133101 19.378791 -43.796108 -29.906443
RightUpLeg 18.471200 -10.062673 -4.825491
RightLeg 9.278249 -0.000000 -0.000000
RightFoot -6.905923 -35.782165 16.497804
RightToeBase -2.074699 -0.000000 0.000000
LeftUpLeg 10.235973 16.013154 14.078205
LeftLeg -5.683203 -0.000000 0.000000
LeftFoot -15.435929 32.785784 -13.745756
LeftToeBase 3.969615 -0.000000 -0.000000
Spine 8.465856 -9.534322 -16.090794
RightShoulder -5.176240 -34.615622 -2.841721
RightArm 13.704119 -14.887949 73.285228
RightForeArm 10.040684 -0.000000 66.235463
RightHand -1.913894 -0.000000 -18.363469
RightHandThumb1 -24.326973 -0.000000 -32.862282
LeftShoulder -17.579375 31.537730 11.763066
LeftArm 49.717622 -50.872528 -69.902728
LeftForeArm 27.711683 -0.000000 108.757779
LeftHand -34.905314 -0.000000 21.400658
LeftHandThumb1 -26.253704 0.000000 33.147579
Head 25.226381 35.604797 23.961520
3968
root 4.137134 38.132628 4.123940 19.290921 -43.961309 -29.853524
RightUpLeg 18.418010 -10.218287 -4.483026
RightLeg 10.914601 -0.000000 -0.000000
RightFoot -6.843570 -35.350438 16.579404
RightToeBase -2.339984 -0.000000 0.000000
LeftUpLeg 10.313342 16.024014 14.039943
LeftLeg -5.607517 -0.000000 0.000000
LeftFoot -15.557273 32.782253 -13.889198
LeftToeBase 3.867222 -0.000000 -0.000000
Spine 8.399424 -9.339849 -16.189617
RightShoulder -5.178669 -34.575126 -2.834716
RightArm 13.719406 -14.879589 73.283087
RightForeArm 10.054305 -0.000000 66.287235
RightHand -1.966561 0.000000 -18.249575
RightHandThumb1 -24.326973 -0.000000 -32.862282
LeftShoulder -17.563928 31.443041 11.810941
LeftArm 49.629122 -50.997529 -69.851359
LeftForeArm 27.654069 -0.000000 108.686123
LeftHand -34.862705 -0.000000 21.720637
LeftHandThumb1 -26.253704 0.000000 33.147579
Head 25.228672 35.569638 23.958439
3969
root 4.128233 38.129954 4.115014 19.160797 -44.133217 -29.789645
RightUpLeg 18.325955 -10.489688 -4.200696
RightLeg 12.806555 -0.000000 -0.000000
RightFoot -6.861733 -34.789533 16.717386
RightToeBase -2.460572 -0.000000 0.000000
LeftUpLeg 10.413395 16.005596 13.994954
LeftLeg -5.506477 -0.000000 0.000000
LeftFoot -15.718498 32.771032 -14.111616
LeftToeBase 3.908247 -0.000000 -0.000000
Spine 8.415655 -9.174488 -16.321107
RightShoulder -5.149280 -34.508190 -2.829062
RightArm 13.777073 -14.889230 73.234018
RightForeArm 10.087652 0.000000 66.315372
RightHand -1.987597 -0.000000 -18.313394
RightHandThumb1 -24.326973 -0.000000 -32.862282
LeftShoulder -17.620663 31.314030 11.821372
LeftArm 49.603104 -51.131189 -69.862925
LeftForeArm 27.624649 -0.000000 108.636112
LeftHand -34.844259 -0.000000 21.928082
LeftHandThumb1 -26.253704 0.000000 33.147579
Head 25.139923 35.551847 23.900500
3970
root 4.118089 38.127045 4.105383 19.019638 -44.313225 -29.747691
RightUpLeg 18.129067 -10.930287 -3.970401
RightLeg 15.127773 -0.000000 -0.000000
RightFoot -7.017306 -33.979173 17.056428
RightToeBase -1.892976 -0.000000 0.000000
LeftUpLeg 10.540722 15.990738 13.975115
LeftLeg -5.394982 -0.000000 0.000000
LeftFoot -15.863189 32.748467 -14.307507
LeftToeBase 3.915371 -0.000000 -0.000000
Spine 8.481087 -8.995626 -16.445464
RightShoulder -5.105551 -34.399647 -2.843503
RightArm 13.782091 -14.856936 73.253588
RightForeArm 10.026627 0.000000 66.352134
RightHand -1.955945 -0.000000 -18.437349
RightHandThumb1 -24.326973 -0.000000 -32.862282
LeftShoulder -17.671186 31.178241 11.813361
LeftArm 49.587300 -51.325135 -69.889650
LeftForeArm 27.736833 -0.000000 108.625828
LeftHand -34.899137 -0.000000 21.604765
LeftHandThumb1 -26.253704 0.000000 33.147579
Head 25.020622 35.599636 23.885945
3971
root 4.109927 38.122053 4.096682 18.818776 -44.519341 -29.681548
RightUpLeg 17.850515 -11.501058 -3.834559
RightLeg 17.841620 -0.000000 -0.000000
RightFoot -7.255865 -33.094513 17.387808
RightToeBase -1.876785 -0.000000 0.000000
LeftUpLeg 10.716969 15.970708 13.936672
LeftLeg -5.288723 -0.000000 0.000000
LeftFoot -16.046188 32.758131 -14.527195
LeftToeBase 3.998918 -0.000000 -0.000000
Spine 8.620627 -8.814858 -16.605222
RightShoulder -5.046200 -34.281719 -2.896901
RightArm 13.812717 -14.841628 73.301639
RightForeArm 10.039135 -0.000000 66.380020
RightHand -1.868589 -0.000000 -18.412010
RightHandThumb1 -24.326973 -0.000000 -32.862282
LeftShoulder -17.752141 31.075882 11.774273
LeftArm 49.626999 -51.567427 -69.973738
LeftForeArm 27.584037 -0.000000 108.604235
LeftHand -34.681236 -0.000000 22.071092
LeftHandThumb1 -26.253704 0.000000 33.147579
Head 24.790433 35.682400 23.774875
3972
root 4.107357 38.114212 4.090787 18.525221 -44.705372 -29.547290
RightUpLeg 17.529223 -12.383184 -3.883394
RightLeg 20.921769 -0.000000 -0.000000
RightFoot -7.351325 -32.149856 17.328653
RightToeBase -2.009001 -0.000000 0.000000
LeftUpLeg 10.928522 15.932417 13.855299
LeftLeg -5.201957 -0.000000 0.000000
LeftFoot -16.176361 32.774154 -14.675612
LeftToeBase 4.106946 -0.000000 -0.000000
Spine 8.846275 -8.654313 -16.824019
RightShoulder -4.993042 -34.156090 -2.954531
RightArm 13.866552 -14.812583 73.371033
RightForeArm 9.995687 0.000000 66.431912
RightHand -1.907742 -0.000000 -18.582358
RightHandThumb1 -24.326973 -0.000000 -32.862282
LeftShoulder -17.795917 30.956683 11.783570
LeftArm 49.736559 -51.832439 -70.201164
LeftForeArm 27.719118 -0.000000 108.647845
LeftHand -34.840449 -0.000000 21.936930
LeftHandThumb1 -26.253704 0.000000 33.147579
Head 24.502760 35.769920 23.628830
